<svg aria-hidden="true" style="position: absolute; width: 0; height: 0; overflow: hidden;" version="1.1" xmlns="http://www.w3.org/2000/svg" xmlns:xlink="http://www.w3.org/1999/xlink">
<defs>
<symbol id="icon-logo" viewBox="0 0 30 32">
<path d="M18.821 14.656l-2.173-4.978-0.474-0.329-0.556-0.177-0.752-0.202-0.882 0.379-0.588 0.329 2.222 4.978h3.202z"></path>
<path d="M11.023 12.992l2.173 4.989 0.474 0.329 0.556 0.177 0.752 0.203 0.882-0.38 0.588-0.329-2.222-4.989h-3.202z"></path>
<path d="M13.28 9.743l-3.374 4.876 3.374 0.036 2.439-4.912c0.171-0.503 0.707-0.209 0.953 0-1.053-1.93-2.7-0.804-3.392 0z"></path>
<path d="M16.55 17.918l3.374-4.876-3.374-0.036-2.439 4.912c-0.171 0.503-0.707 0.209-0.953 0 1.053 1.93 2.7 0.804 3.392 0z"></path>
</symbol>
<symbol id="icon-menu" viewBox="0 0 32 32">
<path d="M2.667 7.993c0-0.733 0.595-1.327 1.327-1.327h10.68c0.352 0 0.689 0.14 0.938 0.389s0.389 0.586 0.389 0.938c0 0.352-0.14 0.689-0.389 0.938s-0.586 0.389-0.938 0.389h-10.68c-0.352 0-0.689-0.14-0.938-0.389s-0.389-0.586-0.389-0.938zM2.667 16c0-0.733 0.595-1.327 1.327-1.327h24.013c0.352 0 0.689 0.14 0.938 0.389s0.389 0.586 0.389 0.938c0 0.352-0.14 0.689-0.389 0.938s-0.586 0.389-0.938 0.389h-24.013c-0.352 0-0.689-0.14-0.938-0.389s-0.389-0.586-0.389-0.938zM3.993 22.68c-0.352 0-0.689 0.14-0.938 0.389s-0.389 0.586-0.389 0.938c0 0.352 0.14 0.689 0.389 0.938s0.586 0.389 0.938 0.389h16.013c0.352 0 0.689-0.14 0.938-0.389s0.389-0.586 0.389-0.938c0-0.352-0.14-0.689-0.389-0.938s-0.586-0.389-0.938-0.389h-16.013z"></path>
</symbol>
</defs>
</svg>
